<svg xmlns="http://www.w3.org/2000/svg" viewBox="0 0 296.8 124.6">
    <g id="container" data-name="Layer 1">
      <g id="MOGLIA" class="cls-1">
        <path id="a" d="M277.7 83.8h1.7l17.4 40.5h-2.2l-5.9-14h-20.3l-6 14h-2.2zm10.3 24.8l-9.5-22.3-9.6 22.3z"/>
        <path id="i" d="M245.6 124.3V83.8h2v40.5z"/>
        <path id="l" d="M206.2 124.3V83.8h2v38.7H233v1.8z"/>
        <path id="g" d="M189.3 117.7q-6.2 6.9-14.1 6.9a16.5 16.5 0 0 1-7.7-1.8 21.2 21.2 0 0 1-6-4.7 22.1 22.1 0 0 1-3.9-6.6 19.7 19.7 0 0 1-1.5-7.5 21.8 21.8 0 0 1 1.4-7.6 20.7 20.7 0 0 1 9.7-11.2 17.2 17.2 0 0 1 7.5-1.7 18.8 18.8 0 0 1 5.5.7 13.9 13.9 0 0 1 4.3 1.8 12.9 12.9 0 0 1 3.3 2.8 16.9 16.9 0 0 1 2.3 3.6l-1.6.8a14 14 0 0 0-5.8-6 17.9 17.9 0 0 0-8.1-1.8 15.9 15.9 0 0 0-6.9 1.6 18.7 18.7 0 0 0-8.4 10.2 20.3 20.3 0 0 0-1.2 6.8 18.7 18.7 0 0 0 1.4 7.1 19.5 19.5 0 0 0 3.6 5.9 16.9 16.9 0 0 0 5.5 4.1 14.1 14.1 0 0 0 6.7 1.6 15.8 15.8 0 0 0 7.3-1.8 22.4 22.4 0 0 0 6.7-5.6v-8.7H180v-1.8h11.1v19.5h-1.8z"/>
        <path id="o" d="M125.8 124.6a16.2 16.2 0 0 1-7.7-1.8 18.5 18.5 0 0 1-6-4.6 19.9 19.9 0 0 1-3.9-6.6 21.8 21.8 0 0 1-1.4-7.6 20.7 20.7 0 0 1 1.5-7.7 22 22 0 0 1 4-6.6 18.9 18.9 0 0 1 6-4.5 17.2 17.2 0 0 1 7.5-1.7 16.8 16.8 0 0 1 7.7 1.8 19.5 19.5 0 0 1 5.9 4.7 24.5 24.5 0 0 1 3.9 6.6 21.4 21.4 0 0 1 1.3 7.4 23 23 0 0 1-1.4 7.9 22.8 22.8 0 0 1-4 6.5 18.9 18.9 0 0 1-6 4.5 17.1 17.1 0 0 1-7.4 1.7zm-17-20.6a19 19 0 0 0 1.3 7.1 18.5 18.5 0 0 0 3.5 5.9 17.6 17.6 0 0 0 5.3 4.1 14.6 14.6 0 0 0 6.9 1.6 15.9 15.9 0 0 0 6.9-1.6 17 17 0 0 0 5.3-4.3 17.7 17.7 0 0 0 3.4-6 19.9 19.9 0 0 0 1.2-6.8 18.9 18.9 0 0 0-1.3-7 18.5 18.5 0 0 0-3.5-5.9 19.7 19.7 0 0 0-5.3-4.2 15.3 15.3 0 0 0-6.7-1.5 16 16 0 0 0-7 1.6 19.9 19.9 0 0 0-10 17z"/>
        <path id="m" d="M90.5 124.3V87.7l-17 28.7h-1.4l-17-28.7v36.6h-2V83.8H55L72.8 114l17.8-30.2h1.9v40.5z"/>
      </g>
      <g id="alex" class="cls-1">
        <path id="x" d="M149.3 67.3a7.8 7.8 0 0 1-4.9-1.6 5.4 5.4 0 0 1-2.1-4.5 4.8 4.8 0 0 1 1.6-3.8 5.2 5.2 0 0 1 3.8-1.5c1.9 0 3.5.9 5 2.8s3.2 2.2 4.9 0 2.7-3.6 4.1-5.5l4.2-6-4.7-14.5a14.1 14.1 0 0 0-1.9-4.5 3 3 0 0 0-2.6-1.3 8 8 0 0 0-2.3.5 7.9 7.9 0 0 0-2.9 2.5l-1.4-1.5c4.1-6 8.2-8.9 12.3-8.9 2.4 0 4.2.6 5.3 2a18.7 18.7 0 0 1 3.2 6.5l2.9 8.9 4.8-7.3c1.4-2.1 2.5-3.5 3.2-4.4a16 16 0 0 1 5.1-4.6 11.2 11.2 0 0 1 4.7-1.1 6.2 6.2 0 0 1 4.1 1.4 4.8 4.8 0 0 1 1.8 4.1 5.3 5.3 0 0 1-1.5 3.9 4.9 4.9 0 0 1-3.5 1.5 6.2 6.2 0 0 1-5-2.5 3.2 3.2 0 0 0-1.9-1.4c-.6-.1-1.3.4-2.2 1.4s-2.3 2.9-3.8 5-3.2 4.4-4.9 6.9l4.9 14.9a11.7 11.7 0 0 0 2.1 4.5 2.8 2.8 0 0 0 2.4 1.1c1.7 0 3.6-1.1 5.8-3.4l1.4 1.4a28.6 28.6 0 0 1-5.8 6.6 11.2 11.2 0 0 1-6.9 2.6 7.9 7.9 0 0 1-5-1.6c-1.4-1-2.5-2.9-3.5-5.7l-3.3-10.3c-1.6 2.6-3.2 5-4.6 7.1s-2.7 3.8-3.9 5.3a13.1 13.1 0 0 1-4.1 3.8 9.6 9.6 0 0 1-4.9 1.2z"/>
        <path id="e" d="M111.7 67.3a15.3 15.3 0 0 1-11.4-4.5c-2.9-3-4.3-7.4-4.3-13.1a33.2 33.2 0 0 1 2-11.3 34.1 34.1 0 0 1 5.7-9.8 27.4 27.4 0 0 1 8.5-6.7 23.9 23.9 0 0 1 10.6-2.4c3.8 0 6.8.8 8.8 2.6a8.6 8.6 0 0 1 3.1 7c0 3.6-2.4 7.1-7.1 10.6s-11.6 6.2-20.5 8.1c.2 4.1 1.1 7.1 2.9 9s4.1 2.8 7.2 2.8a12.6 12.6 0 0 0 7.4-2.2 22.5 22.5 0 0 0 5.6-5l1.4 1a38.2 38.2 0 0 1-4.8 6.8 25.8 25.8 0 0 1-6.8 5.1 17.8 17.8 0 0 1-8.3 2zm10.1-44.6a7.9 7.9 0 0 0-4.6 1.8 20.4 20.4 0 0 0-4.6 5 30.5 30.5 0 0 0-3.7 7.2 27.5 27.5 0 0 0-1.8 8.7c7-2.1 11.9-4.6 14.8-7.7s4.2-6.3 4.2-9.8a5.8 5.8 0 0 0-1.2-4 4.1 4.1 0 0 0-3.1-1.2z"/>
        <path id="l-2" data-name="l" d="M67.8 67.3a7.7 7.7 0 0 1-4.9-1.5 5.8 5.8 0 0 1-1.8-4.5 19.8 19.8 0 0 1 .4-3.9c.3-1.5.7-3.5 1.1-5.9l5.5-27c.5-2.2 1-4.3 1.3-6.1s.7-3.9 1.1-6.2a4.2 4.2 0 0 0-3.2-5.1l-1.4-.4.3-1.6L83.7 0l.8.8-11.4 53.8c-.2 1-.4 1.9-.5 2.6a14.2 14.2 0 0 0-.1 1.9q0 2.1 1.8 2.1c1.4 0 3.5-1.4 6.3-4l1.3 1.3a27.9 27.9 0 0 1-5.9 6 12.4 12.4 0 0 1-8.2 2.8z"/>
        <path id="a-2" data-name="a" d="M10 67.3a9.7 9.7 0 0 1-6.9-2.8C1 62.6 0 59.4 0 54.9a28.2 28.2 0 0 1 1.9-10.1 42.7 42.7 0 0 1 5.2-9.6 51.4 51.4 0 0 1 7.3-8.1 39.1 39.1 0 0 1 8.3-5.6 18.5 18.5 0 0 1 8.1-2 8.6 8.6 0 0 1 3.6.7 12.1 12.1 0 0 1 3 2l7.1-3.1 1 .6-8 35.1a19.9 19.9 0 0 0-.7 4.4c0 1.3.6 2 1.8 2a5.3 5.3 0 0 0 2.9-1.1 26.9 26.9 0 0 0 3.6-2.9l1.1 1.1a31.3 31.3 0 0 1-3.4 4.2 19.4 19.4 0 0 1-4.7 3.4 11.4 11.4 0 0 1-5.4 1.4 7.1 7.1 0 0 1-4.9-1.8 7.6 7.6 0 0 1-2-5.7c0-.9.1-1.8.2-2.8a49.4 49.4 0 0 1-8 7.3c-2.9 2-5.5 3-8 3zm.9-16.7c0 3.2.5 5.5 1.6 6.9a4.8 4.8 0 0 0 4.1 2.1 8.4 8.4 0 0 0 4.6-1.5 26.3 26.3 0 0 0 5.3-4.3q.2-.6.3-1.5l5.8-26.5a6.4 6.4 0 0 0-2.8-1.8 11.7 11.7 0 0 0-3-.5c-2.6 0-5.4 1.6-8.5 4.8A25.5 25.5 0 0 0 13 38a38.7 38.7 0 0 0-2.1 12.6z"/>
      </g>
    </g>
</svg>
